<svg width="27" height="16" viewBox="0 0 27 16" fill="none" xmlns="http://www.w3.org/2000/svg">
<path fill-rule="evenodd" clip-rule="evenodd" d="M26.3835 8.57386C26.53 8.42734 26.6123 8.22863 26.6123 8.02143C26.6123 7.81423 26.53 7.61552 26.3835 7.469L19.7544 0.839878C19.6079 0.693365 19.4092 0.611054 19.202 0.611055C18.9948 0.611054 18.7961 0.693365 18.6495 0.839878C18.503 0.98639 18.4207 1.1851 18.4207 1.39231C18.4207 1.59951 18.503 1.79822 18.6495 1.94473L23.9451 7.2403L1.5243 7.23919C1.31684 7.23919 1.11788 7.32161 0.971178 7.46831C0.82448 7.615 0.742065 7.81397 0.742065 8.02143C0.742065 8.22889 0.824479 8.42786 0.971177 8.57456C1.11788 8.72125 1.31684 8.80367 1.5243 8.80367L23.9451 8.80256L18.6495 14.0981C18.503 14.2446 18.4207 14.4434 18.4207 14.6506C18.4207 14.8578 18.503 15.0565 18.6495 15.203C18.7961 15.3495 18.9948 15.4318 19.202 15.4318C19.4092 15.4318 19.6079 15.3495 19.7544 15.203L26.3835 8.57386Z" fill="white"/>
</svg>
