<svg width="67" height="67" viewBox="0 0 67 67" fill="none" xmlns="http://www.w3.org/2000/svg">
<g filter="url(#filter0_b_13_519)">
<circle cx="33.5" cy="33.5" r="33.5" fill="#1A1A1A"/>
<circle cx="33.5" cy="33.5" r="32.5" stroke="url(#paint0_linear_13_519)" stroke-width="2"/>
</g>
<g clip-path="url(#clip0_13_519)">
<path d="M45.0901 22.8139C43.0151 21.8617 40.8256 21.182 38.5761 20.7919C38.5557 20.7885 38.5348 20.7914 38.5162 20.8004C38.4975 20.8094 38.4821 20.8239 38.4721 20.8419C38.1901 21.3419 37.8781 21.9959 37.6601 22.5079C35.2353 22.1399 32.7689 22.1399 30.3441 22.5079C30.1009 21.9376 29.8258 21.3813 29.5201 20.8419C29.5098 20.8241 29.4944 20.8097 29.4758 20.8008C29.4573 20.7919 29.4365 20.7888 29.4161 20.7919C27.1661 21.1799 24.9761 21.8599 22.9021 22.8139C22.8843 22.8207 22.8695 22.8334 22.8601 22.8499C18.7121 29.0479 17.5741 35.0939 18.1321 41.0639C18.1341 41.0919 18.1521 41.1199 18.1741 41.1379C20.5895 42.9271 23.2913 44.2932 26.1641 45.1779C26.1844 45.1843 26.2062 45.1841 26.2263 45.1772C26.2465 45.1704 26.2639 45.1573 26.2761 45.1399C26.8921 44.2999 27.4401 43.4139 27.9121 42.4819C27.9219 42.4627 27.9253 42.4409 27.9217 42.4196C27.9181 42.3983 27.9077 42.3788 27.8921 42.3639C27.8818 42.3542 27.8695 42.3467 27.8561 42.3419C26.9944 42.0108 26.1599 41.6129 25.3601 41.1519C25.3378 41.1393 25.3211 41.1185 25.3137 41.0939C25.3062 41.0693 25.3085 41.0428 25.3201 41.0199C25.3269 41.005 25.3372 40.992 25.3501 40.9819C25.5181 40.8559 25.6861 40.7239 25.8461 40.5919C25.8602 40.5806 25.8772 40.5732 25.8952 40.5708C25.9131 40.5683 25.9314 40.5708 25.9481 40.5779C31.1861 42.9699 36.8561 42.9699 42.0301 40.5779C42.0474 40.5704 42.0664 40.5678 42.085 40.5703C42.1037 40.5727 42.1213 40.5802 42.1361 40.5919C42.2961 40.7239 42.4641 40.8559 42.6321 40.9819C42.6457 40.9919 42.6566 41.005 42.6639 41.0202C42.6712 41.0354 42.6746 41.0522 42.6738 41.0691C42.673 41.0859 42.6681 41.1023 42.6594 41.1168C42.6507 41.1312 42.6386 41.1433 42.6241 41.1519C41.8261 41.6171 40.9905 42.0145 40.1261 42.3399C40.1123 42.3449 40.0998 42.3529 40.0894 42.3632C40.079 42.3736 40.0711 42.3861 40.0661 42.3999C40.0615 42.4133 40.0596 42.4274 40.0606 42.4415C40.0617 42.4556 40.0656 42.4694 40.0721 42.4819C40.5521 43.4119 41.1021 44.2999 41.7061 45.1399C41.7183 45.1573 41.7357 45.1704 41.7559 45.1772C41.776 45.1841 41.7978 45.1843 41.8181 45.1779C44.6957 44.296 47.4018 42.9297 49.8201 41.1379C49.8322 41.1295 49.8423 41.1185 49.8495 41.1057C49.8568 41.0929 49.8611 41.0786 49.8621 41.0639C50.5301 34.1619 48.7441 28.1659 45.1301 22.8519C45.1265 22.8431 45.121 22.8352 45.1141 22.8287C45.1072 22.8221 45.099 22.8171 45.0901 22.8139ZM28.6941 37.4279C27.1161 37.4279 25.8181 35.9799 25.8181 34.2039C25.8181 32.4259 27.0921 30.9779 28.6941 30.9779C30.3081 30.9779 31.5941 32.4379 31.5701 34.2039C31.5701 35.9799 30.2961 37.4279 28.6941 37.4279ZM39.3261 37.4279C37.7501 37.4279 36.4501 35.9799 36.4501 34.2039C36.4501 32.4259 37.7241 30.9779 39.3261 30.9779C40.9401 30.9779 42.2281 32.4379 42.2021 34.2039C42.2021 35.9799 40.9401 37.4279 39.3261 37.4279Z" fill="white"/>
</g>
<defs>
<filter id="filter0_b_13_519" x="-148" y="-148" width="363" height="363" filterUnits="userSpaceOnUse" color-interpolation-filters="sRGB">
<feFlood flood-opacity="0" result="BackgroundImageFix"/>
<feGaussianBlur in="BackgroundImage" stdDeviation="74"/>
<feComposite in2="SourceAlpha" operator="in" result="effect1_backgroundBlur_13_519"/>
<feBlend mode="normal" in="SourceGraphic" in2="effect1_backgroundBlur_13_519" result="shape"/>
</filter>
<linearGradient id="paint0_linear_13_519" x1="27.2323" y1="-3.81294e-07" x2="63.0462" y2="13.7724" gradientUnits="userSpaceOnUse">
<stop stop-color="white" stop-opacity="0.3"/>
<stop offset="1" stop-color="white" stop-opacity="0.05"/>
</linearGradient>
<clipPath id="clip0_13_519">
<rect width="32" height="32" fill="white" transform="translate(18 17)"/>
</clipPath>
</defs>
</svg>
