<svg width="411" height="401" viewBox="0 0 411 401" fill="none" xmlns="http://www.w3.org/2000/svg">
<g filter="url(#filter0_b_45_21)">
<path d="M220.151 154.742L220.151 154.742C222.118 157.711 225.907 158.973 229.137 158.103L243.216 154.314C247.537 153.151 249.941 148.977 248.778 144.658L248.541 143.777L248.506 143.647L248.448 143.525C239.623 124.915 219.774 113.932 198.875 117.047L193.543 97.2351C192.347 92.7927 188.142 90.6488 183.061 90.9813L182.913 90.991L182.769 91.0296L169.569 94.5828C165.126 95.7785 162.982 99.984 163.316 105.066L163.325 105.215L163.364 105.358L168.474 124.342C143.297 135.39 131.238 157.811 137.298 180.327C141.296 195.179 148.671 204.554 160.111 209.388C171.41 214.162 186.445 214.4 205.562 211.624C218.455 210.511 226.923 210.784 232.604 212.918C235.398 213.968 237.498 215.463 239.126 217.475C240.767 219.503 241.986 222.129 242.898 225.52C246.4 238.528 237.533 250.893 221.311 255.259C210.057 258.288 202.078 257.881 196.231 255.381C190.404 252.89 186.444 248.213 183.443 242.16L183.427 242.129L183.41 242.098C181.264 238.24 177.463 236.859 174.129 237.756L159.167 241.783C154.848 242.946 152.445 247.12 153.608 251.44L153.845 252.321L153.876 252.436L153.925 252.545C158.753 263.311 165.902 271.864 175.785 277.266C185.385 282.514 197.434 284.718 212.189 283.246L217.541 303.129C218.737 307.57 222.942 309.714 228.022 309.381L228.171 309.371L228.314 309.333L241.515 305.78C245.957 304.584 248.101 300.379 247.768 295.298L247.759 295.15L247.72 295.006L242.362 275.102C267.349 263.171 280.004 239.632 273.482 215.399C269.248 199.671 261.593 190.124 249.917 185.35C238.389 180.637 223.181 180.685 204.068 183.465C190.441 185.251 182.172 184.685 176.95 182.368C171.902 180.128 169.479 176.141 167.882 170.206C166.324 164.419 167.13 159.251 170.275 154.966C173.457 150.632 179.169 147.015 187.776 144.698C195.556 142.604 201.758 142.329 206.912 143.911C212.029 145.481 216.314 148.944 220.151 154.742Z" fill="url(#paint0_linear_45_21)" stroke="url(#paint1_linear_45_21)" stroke-width="3"/>
<path d="M194.42 334.485L194.246 334.427L194.063 334.412C119.622 328.316 64.4292 261.967 71.6306 188.167L71.6319 188.154L71.6329 188.141C74.8477 148.088 96.0646 112.509 128.242 89.8433L128.312 89.7946L128.375 89.7384C130.051 88.2496 131.265 86.568 131.859 84.5682C132.452 82.5706 132.383 80.4 131.738 78.0048L128.422 65.685C127.884 63.6852 126.883 61.9639 125.382 60.7522C123.87 59.5317 121.958 58.9165 119.771 58.9567L119.587 58.9601L119.409 59.008L119.385 59.0146C118.948 59.132 118.19 59.3361 117.446 59.6753C116.811 59.9649 116.007 60.4308 115.443 61.1881C38.4559 110.606 16.5301 212.594 65.8202 289.694L65.8243 289.701C95.1725 335.094 143.597 362.998 197.581 365.629C199.942 366.077 202.129 365.514 203.734 364.175C205.265 362.897 206.169 360.993 206.233 358.852C206.933 357.346 206.566 355.994 206.176 354.556C206.157 354.483 206.137 354.411 206.117 354.338L202.801 342.016C202.33 340.268 200.991 338.663 199.516 337.415C198.011 336.141 196.172 335.077 194.42 334.485ZM216.9 66.7578L217.074 66.8165L217.257 66.8315C291.698 72.9267 346.89 139.276 339.689 213.076L339.688 213.089L339.687 213.102C336.472 253.155 315.255 288.734 283.077 311.4L283.008 311.449L282.945 311.505C281.269 312.994 280.054 314.675 279.46 316.675C278.867 318.673 278.937 320.843 279.581 323.238L282.897 335.558C283.436 337.558 284.436 339.279 285.938 340.491C287.45 341.711 289.361 342.327 291.548 342.286L291.733 342.283L291.911 342.235L291.935 342.229C292.371 342.111 293.13 341.907 293.874 341.568C294.509 341.278 295.313 340.812 295.877 340.055C372.864 290.637 394.79 188.65 345.499 111.549C315.91 65.2643 266.601 37.6032 213.506 34.7341C211.143 34.2852 208.954 34.848 207.349 36.1875C205.817 37.4653 204.914 39.3699 204.85 41.5107C204.15 43.0182 204.516 44.3683 204.907 45.8095C204.927 45.8817 204.946 45.9541 204.966 46.0268L208.282 58.3466C208.851 60.4613 210.185 62.2786 211.735 63.6841C213.288 65.0926 215.142 66.1648 216.9 66.7578Z" fill="url(#paint2_linear_45_21)" stroke="url(#paint3_linear_45_21)" stroke-width="3"/>
</g>
<defs>
<filter id="filter0_b_45_21" x="-1.97827" y="-6.91772" width="415.276" height="414.198" filterUnits="userSpaceOnUse" color-interpolation-filters="sRGB">
<feFlood flood-opacity="0" result="BackgroundImageFix"/>
<feGaussianBlur in="BackgroundImage" stdDeviation="20"/>
<feComposite in2="SourceAlpha" operator="in" result="effect1_backgroundBlur_45_21"/>
<feBlend mode="normal" in="SourceGraphic" in2="effect1_backgroundBlur_45_21" result="shape"/>
</filter>
<linearGradient id="paint0_linear_45_21" x1="168.701" y1="96.3698" x2="263.432" y2="107.518" gradientUnits="userSpaceOnUse">
<stop stop-color="white" stop-opacity="0.2"/>
<stop offset="1" stop-color="white" stop-opacity="0.05"/>
</linearGradient>
<linearGradient id="paint1_linear_45_21" x1="165.087" y1="97.3425" x2="238.262" y2="93.5128" gradientUnits="userSpaceOnUse">
<stop stop-color="white" stop-opacity="0.2"/>
<stop offset="1" stop-color="white" stop-opacity="0.05"/>
</linearGradient>
<linearGradient id="paint2_linear_45_21" x1="144.698" y1="53.7545" x2="350.28" y2="135.942" gradientUnits="userSpaceOnUse">
<stop stop-color="white" stop-opacity="0.35"/>
<stop offset="1" stop-color="white" stop-opacity="0.05"/>
</linearGradient>
<linearGradient id="paint3_linear_45_21" x1="134.963" y1="56.3749" x2="320.988" y2="78.5429" gradientUnits="userSpaceOnUse">
<stop stop-color="white" stop-opacity="0.2"/>
<stop offset="1" stop-color="white" stop-opacity="0.05"/>
</linearGradient>
</defs>
</svg>
