<svg width="328" height="217" viewBox="0 0 328 217" fill="none" xmlns="http://www.w3.org/2000/svg">
<path d="M327.411 24.0682C327.327 23.3298 326.748 22.7426 326.007 22.6489C325.267 22.5549 324.555 22.9777 324.286 23.671C323.045 26.8743 321.376 29.9046 319.323 32.6853C314.529 39.2378 307.949 44.1135 300.291 46.7828C298.014 47.5878 295.624 48.1878 293.187 48.5687L277.444 51.0286L216.586 0.88886C216.581 0.883909 216.575 0.881087 216.569 0.876428C216.539 0.852836 216.509 0.831087 216.477 0.809628C216.451 0.790988 216.424 0.774485 216.397 0.757975C216.353 0.730881 216.307 0.705921 216.26 0.683089C216.219 0.66308 216.18 0.644618 216.137 0.628581C216.101 0.613518 216.063 0.602439 216.025 0.591351C215.996 0.582793 215.964 0.574518 215.932 0.566249C215.907 0.560797 215.882 0.549532 215.855 0.546212C215.842 0.544552 215.83 0.544437 215.817 0.542777C215.758 0.533029 215.7 0.526972 215.643 0.522755C215.602 0.519618 215.561 0.522305 215.519 0.523144C215.491 0.5238 215.461 0.524745 215.433 0.527244C215.391 0.529926 215.35 0.534446 215.309 0.538969C215.308 0.539258 215.304 0.53984 215.302 0.540128L153.94 10.1286C153.926 10.131 153.911 10.1351 153.898 10.1372C153.87 10.1415 153.843 10.1495 153.816 10.1557C153.774 10.1661 153.73 10.1785 153.688 10.1907C153.661 10.1987 153.634 10.2086 153.609 10.2182C153.568 10.2341 153.527 10.2518 153.486 10.2713C153.462 10.2828 153.437 10.2942 153.414 10.3072C153.372 10.3307 153.333 10.3558 153.293 10.3809C153.272 10.3936 153.251 10.4062 153.233 10.4205C153.227 10.4232 153.222 10.4259 153.219 10.4302L66.517 75.2006L37.5662 79.7245C32.7707 80.4739 28.2634 77.2023 27.5178 72.431C26.7723 67.6598 30.0666 63.1691 34.8621 62.4198L47.2612 60.4823C54.4016 59.3665 59.3088 52.6774 58.1987 45.5731C57.0882 38.4669 50.3746 33.5956 43.2341 34.7114L42.9637 34.7536L22.6741 37.9241L14.3389 39.2266C13.4535 39.3649 12.8481 40.1901 12.9858 41.071C13.9234 47.0715 19.5929 51.1866 25.6239 50.2442L35.5798 48.6884C41.0402 47.8352 44.9512 43.1254 44.9484 37.7888C49.8493 37.629 54.2222 41.133 54.9942 46.0738C55.8297 51.42 52.1364 56.4544 46.763 57.2941L34.3639 59.2316C27.8014 60.2571 23.2931 66.4024 24.3134 72.9318C25.3337 79.4611 31.5019 83.9382 38.0644 82.9127L63.4404 78.9474L28.9418 124.239C28.7496 124.49 28.6375 124.792 28.6164 125.107L26.8749 150.998C26.875 151.011 26.873 151.023 26.8732 151.036L24.5648 185.418L3.59911 188.694C2.84894 188.811 2.28157 189.431 2.23018 190.182L0.584408 214.671C0.550699 215.159 0.743004 215.637 1.10766 215.967C1.47047 216.297 1.96624 216.446 2.45153 216.371L24.6972 212.894C25.4473 212.777 26.0147 212.158 26.0661 211.406L28.484 175.406L38.0632 162.344L77.5163 156.179L75.6728 183.603L60.3769 185.994C59.6267 186.111 59.0593 186.73 59.0082 187.484L57.7825 205.735C57.7488 206.223 57.9411 206.701 58.3057 207.031C58.6685 207.361 59.1643 207.51 59.6496 207.435L76.2292 204.844C76.9793 204.727 77.5467 204.107 77.5978 203.354L78.8241 185.106C78.8239 185.105 78.8239 185.105 78.8236 185.103L80.8559 154.843L94.3463 136.454L195.606 120.631L202.218 162.946C202.355 163.826 203.184 164.428 204.069 164.289L227.402 160.643C227.826 160.577 228.207 160.346 228.463 160L255.922 122.569L283.371 126.766C283.54 126.792 283.707 126.791 283.868 126.766C284.51 126.665 285.052 126.184 285.2 125.519L297.689 69.7515C306.417 66.968 313.889 61.5903 319.345 54.1528C325.748 45.4478 328.611 34.7624 327.411 24.0682ZM35.0819 45.5021L25.126 47.0578C21.4122 47.6381 17.8912 45.5056 16.6084 42.1418L23.1747 41.1157L41.6954 38.2216C41.4982 41.8168 38.7956 44.9217 35.0819 45.5021ZM22.9172 209.907L3.95748 212.869L5.3812 191.684L24.3409 188.721L22.9172 209.907ZM74.4489 201.854L61.1534 203.932L62.1571 188.983L75.4508 186.906L74.4489 201.854ZM270.522 97.2026L255.905 117.127L252.508 104.154L249.37 104.973L253.435 120.496L228.158 154.952L221.898 114.891C221.796 114.239 221.306 113.715 220.661 113.569L115.411 89.5636L175.715 71.1031L227.897 85.4657L270.522 97.2026ZM173.567 68.3841L112.601 87.0482L153.869 15.5146L173.567 68.3841ZM107.852 88.8003L84.6938 111.658L69.1646 77.2562L148.861 17.7188L107.852 88.8003ZM82.2329 114.088L38.1687 157.579L31.963 125.613L66.7936 79.8846L82.2329 114.088ZM83.6518 117.23L91.5711 134.771L78.3591 152.781L41.8529 158.486L83.6518 117.23ZM86.1127 114.801L109.656 91.5636L211.735 114.846L94.4096 133.18L86.1127 114.801ZM176.02 65.6767L156.4 13.0103L212.411 4.258L176.02 65.6767ZM217.811 6.09301L273.166 51.6991L239.622 56.9408C234.984 57.6656 230.31 57.5785 225.714 56.6806L217.809 6.0933L217.811 6.09301ZM30.1096 151.213C30.1097 151.202 30.1114 151.189 30.1116 151.177L31.0138 137.753L35.4256 160.474L28.8884 169.385L30.1096 151.213ZM198.812 120.132L218.941 116.987L225.304 157.707L205.175 160.852L198.812 120.132ZM282.369 123.347L258.078 119.633L274.522 97.2175C274.836 96.7889 274.919 96.2361 274.744 95.7367C274.569 95.2373 274.16 94.8538 273.647 94.7131L228.764 82.3531L228.329 83.9087L228.764 82.3531L178.154 68.4225L214.644 6.83517L222.304 55.8541C214.521 53.6003 207.524 48.9923 202.408 42.7103C201.939 42.1342 201.134 41.9504 200.459 42.2673C199.783 42.5843 199.41 43.3185 199.558 44.0467C202.462 58.4393 212.423 70.2245 226.202 75.5757C226.743 75.7856 227.355 75.692 227.809 75.3303C228.263 74.9686 228.486 74.3938 228.397 73.8225L226.246 60.058C230.84 60.8277 235.498 60.8512 240.123 60.1284L276.502 54.4439L294.483 69.2595L282.369 123.347ZM222.85 59.3482L224.739 71.4339C215.326 66.992 208.129 59.1736 204.514 49.593C209.717 54.2548 216.032 57.631 222.85 59.3482ZM296.51 66.7395L280.777 53.774L293.685 51.7569C296.321 51.345 298.908 50.6935 301.366 49.826C309.643 46.9392 316.759 41.6683 321.941 34.587C322.821 33.3942 323.635 32.1588 324.383 30.8865C323.986 38.5472 321.359 45.9581 316.732 52.2523C311.643 59.1869 304.661 64.1858 296.51 66.7395Z" fill="white"/>
</svg>
