<svg width="67" height="67" viewBox="0 0 67 67" fill="none" xmlns="http://www.w3.org/2000/svg">
<g filter="url(#filter0_b_13_517)">
<circle cx="33.5" cy="33.5" r="33.5" fill="#1A1A1A"/>
<circle cx="33.5" cy="33.5" r="32.5" stroke="url(#paint0_linear_13_517)" stroke-width="2"/>
</g>
<path d="M49.5239 25.5827C48.4106 26.076 47.2146 26.4094 45.9573 26.56C47.2546 25.7837 48.2252 24.562 48.6879 23.1227C47.4691 23.8467 46.1351 24.3563 44.7439 24.6294C43.8084 23.6305 42.5693 22.9685 41.219 22.746C39.8687 22.5235 38.4827 22.7531 37.2763 23.399C36.0698 24.045 35.1103 25.0712 34.5468 26.3183C33.9833 27.5654 33.8473 28.9637 34.1599 30.296C31.6902 30.172 29.2741 29.5301 27.0685 28.4119C24.8629 27.2937 22.9171 25.7242 21.3573 23.8054C20.8239 24.7254 20.5173 25.792 20.5173 26.928C20.5167 27.9507 20.7685 28.9577 21.2504 29.8597C21.7324 30.7617 22.4295 31.5307 23.2799 32.0987C22.2936 32.0673 21.3291 31.8008 20.4666 31.3214V31.4014C20.4665 32.8357 20.9626 34.2259 21.8708 35.336C22.779 36.4462 24.0434 37.2079 25.4493 37.492C24.5343 37.7396 23.5751 37.7761 22.6439 37.5987C23.0406 38.8328 23.8133 39.9121 24.8538 40.6853C25.8943 41.4585 27.1505 41.8869 28.4466 41.9107C26.2464 43.6379 23.5291 44.5748 20.7319 44.5707C20.2364 44.5708 19.7414 44.5419 19.2493 44.484C22.0886 46.3096 25.3937 47.2784 28.7693 47.2747C40.1959 47.2747 46.4426 37.8107 46.4426 29.6027C46.4426 29.336 46.4359 29.0667 46.4239 28.8C47.639 27.9213 48.6878 26.8332 49.5213 25.5867L49.5239 25.5827Z" fill="white"/>
<defs>
<filter id="filter0_b_13_517" x="-148" y="-148" width="363" height="363" filterUnits="userSpaceOnUse" color-interpolation-filters="sRGB">
<feFlood flood-opacity="0" result="BackgroundImageFix"/>
<feGaussianBlur in="BackgroundImage" stdDeviation="74"/>
<feComposite in2="SourceAlpha" operator="in" result="effect1_backgroundBlur_13_517"/>
<feBlend mode="normal" in="SourceGraphic" in2="effect1_backgroundBlur_13_517" result="shape"/>
</filter>
<linearGradient id="paint0_linear_13_517" x1="27.2323" y1="-3.81294e-07" x2="63.0462" y2="13.7724" gradientUnits="userSpaceOnUse">
<stop stop-color="white" stop-opacity="0.3"/>
<stop offset="1" stop-color="white" stop-opacity="0.05"/>
</linearGradient>
</defs>
</svg>
