<svg width="67" height="67" viewBox="0 0 67 67" fill="none" xmlns="http://www.w3.org/2000/svg">
<g filter="url(#filter0_b_13_521)">
<circle cx="33.5" cy="33.5" r="33.5" fill="#1A1A1A"/>
<circle cx="33.5" cy="33.5" r="32.5" stroke="url(#paint0_linear_13_521)" stroke-width="2"/>
</g>
<g clip-path="url(#clip0_13_521)">
<path d="M32.781 45.125H18L32.781 27.281V45.125ZM50 45.125H35.219C35.2509 43.1858 36.0436 41.3369 37.4263 39.9768C38.8089 38.6168 40.6706 37.8546 42.61 37.8546C44.5494 37.8546 46.4112 38.6168 47.7938 39.9768C49.1764 41.3369 49.9691 43.1858 50.001 45.125H50ZM35.219 38.719V20.875H50L35.219 38.719ZM32.781 20.875C32.7491 22.8142 31.9564 24.6631 30.5738 26.0232C29.1912 27.3832 27.3294 28.1454 25.39 28.1454C23.4506 28.1454 21.5889 27.3832 20.2063 26.0232C18.8236 24.6631 18.0309 22.8142 17.999 20.875H32.781Z" fill="white"/>
</g>
<defs>
<filter id="filter0_b_13_521" x="-148" y="-148" width="363" height="363" filterUnits="userSpaceOnUse" color-interpolation-filters="sRGB">
<feFlood flood-opacity="0" result="BackgroundImageFix"/>
<feGaussianBlur in="BackgroundImage" stdDeviation="74"/>
<feComposite in2="SourceAlpha" operator="in" result="effect1_backgroundBlur_13_521"/>
<feBlend mode="normal" in="SourceGraphic" in2="effect1_backgroundBlur_13_521" result="shape"/>
</filter>
<linearGradient id="paint0_linear_13_521" x1="27.2323" y1="-3.81294e-07" x2="63.0462" y2="13.7724" gradientUnits="userSpaceOnUse">
<stop stop-color="white" stop-opacity="0.3"/>
<stop offset="1" stop-color="white" stop-opacity="0.05"/>
</linearGradient>
<clipPath id="clip0_13_521">
<rect width="32" height="32" fill="white" transform="translate(18 17)"/>
</clipPath>
</defs>
</svg>
